<svg width="552" height="765" xmlns="http://www.w3.org/2000/svg" xmlns:xlink="http://www.w3.org/1999/xlink" xml:space="preserve" overflow="hidden"><defs><clipPath id="clip0"><rect x="1385" y="86" width="552" height="765"/></clipPath></defs><g clip-path="url(#clip0)" transform="translate(-1385 -86)"><path d="M1387.5 156.875C1387.5 194.637 1509.95 225.25 1661 225.25 1812.05 225.25 1934.5 194.637 1934.5 156.875L1934.5 780.125C1934.5 817.887 1812.05 848.5 1661 848.5 1509.95 848.5 1387.5 817.887 1387.5 780.125Z" fill="#3EAF7C" fill-rule="evenodd"/><path d="M1387.5 156.875C1387.5 119.112 1509.95 88.4998 1661 88.4998 1812.05 88.4998 1934.5 119.112 1934.5 156.875 1934.5 194.637 1812.05 225.25 1661 225.25 1509.95 225.25 1387.5 194.637 1387.5 156.875Z" fill="#8BCFB0" fill-rule="evenodd"/><path d="M1934.5 156.875C1934.5 194.637 1812.05 225.25 1661 225.25 1509.95 225.25 1387.5 194.637 1387.5 156.875 1387.5 119.112 1509.95 88.4998 1661 88.4998 1812.05 88.4998 1934.5 119.112 1934.5 156.875L1934.5 780.125C1934.5 817.887 1812.05 848.5 1661 848.5 1509.95 848.5 1387.5 817.887 1387.5 780.125L1387.5 156.875" stroke="#323232" stroke-width="4.58333" stroke-miterlimit="8" fill="none" fill-rule="evenodd"/><path d="M1528.92 330.793C1556.77 326.66 1588.34 328.683 1610.85 347.461 1631.1 363.953 1639.37 390.273 1643.3 415.186 1648.7 455.074 1648.41 495.951 1640.95 535.531 1635.14 564.446 1619.69 593.603 1592.53 607.346 1572.85 618.165 1549.72 617.505 1527.98 616.45 1510.45 614.515 1492.92 607.5 1480.59 594.571 1465.23 579.552 1457.79 558.443 1453.91 537.752 1448.16 506.374 1448.16 474.226 1450.37 442.497 1453.38 412.152 1459.92 380.092 1480.76 356.652 1493.25 342.843 1510.62 333.762 1528.92 330.793M1535.37 376.024C1515.06 383.94 1510.12 408.194 1507.77 427.5 1505.12 457.361 1504.9 487.53 1507.62 517.412 1509.28 530.891 1511.37 544.876 1518.21 556.838 1529.36 577.09 1562.14 577.596 1575.31 559.191 1584.59 546.129 1586.93 529.638 1588.84 514.092 1591.13 484.539 1590.82 454.744 1587.77 425.257 1585.84 411.492 1583.16 397.067 1575.06 385.458 1566.05 373.408 1548.8 371.737 1535.37 376.024Z" fill="#FFFFFF" fill-rule="evenodd"/><path d="M1755.31 336.491C1765.39 329.375 1778.4 333.065 1789.85 332.23 1795.36 332.999 1803.3 330.671 1806.73 336.447 1807.95 345.737 1807.06 355.137 1807.28 364.493 1807.45 432.399 1806.97 500.306 1807.52 568.191 1821.31 568.323 1835.11 567.796 1848.9 568.235 1852.88 568.367 1857.56 569.772 1858.87 574.033 1861.73 582.884 1861.21 592.481 1860.18 601.618 1859.72 606.449 1856.68 612.796 1850.91 611.918 1799.43 611.83 1747.94 612.115 1696.48 611.764 1690.27 601.837 1691.15 589.472 1692.53 578.338 1692.96 573.155 1696.81 568.301 1702.3 568.345 1718.41 567.708 1734.54 568.345 1750.66 568.191 1751.14 563.272 1751.42 558.308 1751.33 553.367 1750.92 498.396 1751.75 443.402 1750.92 388.453 1735.51 395.349 1721.4 404.837 1706.34 412.458 1702.65 414.566 1698.3 414.412 1694.19 414.698 1689.88 405.188 1690.97 394.405 1691.61 384.28 1691.76 377.846 1697.62 374.266 1702.32 371.081 1720.05 359.639 1737.71 348.109 1755.31 336.491Z" fill="#FFFFFF" fill-rule="evenodd"/></g></svg>