<svg width="974" height="925" xmlns="http://www.w3.org/2000/svg" xmlns:xlink="http://www.w3.org/1999/xlink" xml:space="preserve" overflow="hidden"><defs><clipPath id="clip0"><rect x="2242" y="582" width="974" height="925"/></clipPath></defs><g clip-path="url(#clip0)" transform="translate(-2242 -582)"><path d="M2458.5 669.875C2458.5 707.638 2580.95 738.25 2732 738.25 2883.05 738.25 3005.5 707.638 3005.5 669.875L3005.5 1293.12C3005.5 1330.89 2883.05 1361.5 2732 1361.5 2580.95 1361.5 2458.5 1330.89 2458.5 1293.12Z" fill="#3EAF7C" fill-rule="evenodd"/><path d="M2458.5 669.875C2458.5 632.113 2580.95 601.5 2732 601.5 2883.05 601.5 3005.5 632.113 3005.5 669.875 3005.5 707.638 2883.05 738.25 2732 738.25 2580.95 738.25 2458.5 707.638 2458.5 669.875Z" fill="#8BCFB0" fill-rule="evenodd"/><path d="M3005.5 669.875C3005.5 707.638 2883.05 738.25 2732 738.25 2580.95 738.25 2458.5 707.638 2458.5 669.875 2458.5 632.113 2580.95 601.5 2732 601.5 2883.05 601.5 3005.5 632.113 3005.5 669.875L3005.5 1293.12C3005.5 1330.89 2883.05 1361.5 2732 1361.5 2580.95 1361.5 2458.5 1330.89 2458.5 1293.12L2458.5 669.875" stroke="#323232" stroke-width="4.58333" stroke-miterlimit="8" fill="none" fill-rule="evenodd"/><text fill="#FFFFFF" font-family="Calibri,Calibri_MSFontService,sans-serif" font-weight="700" font-size="440" transform="matrix(1 0 0 1 2506.23 1126)">01</text></g></svg>