<?xml version="1.0" encoding="UTF-8" ?>
<!DOCTYPE svg PUBLIC "-//W3C//DTD SVG 1.1//EN" "http://www.w3.org/Graphics/SVG/1.1/DTD/svg11.dtd">
<svg width="406pt" height="136pt" viewBox="0 0 406 136" version="1.1" xmlns="http://www.w3.org/2000/svg">
<g id="#55c391ff">
<path fill="#55c391" opacity="1.00" d=" M 12.33 20.31 C 20.14 7.61 35.88 1.48 50.36 2.92 C 43.78 5.88 36.57 8.09 31.40 13.40 C 22.22 22.80 17.99 35.89 16.59 48.70 C 15.49 59.43 14.61 70.26 15.67 81.03 C 16.57 94.56 18.41 108.98 26.96 120.03 C 31.14 125.84 37.86 128.77 44.10 131.79 C 42.33 132.06 40.55 132.37 38.78 132.65 C 29.16 132.60 19.71 127.77 13.71 120.29 C 5.99 110.61 3.71 98.01 2.56 86.01 C 2.17 78.01 0.98 70.00 2.14 62.00 C 2.60 47.68 4.42 32.63 12.33 20.31 Z" />
<path fill="#55c391" opacity="1.00" d=" M 55.66 24.74 C 58.44 21.98 62.80 23.00 66.19 23.79 C 72.51 25.56 75.70 32.04 76.98 37.98 C 79.34 48.81 79.61 59.97 79.77 71.01 C 79.26 81.02 79.40 91.35 75.92 100.90 C 74.08 106.16 70.03 111.05 64.43 112.41 C 61.21 113.11 57.47 113.40 54.66 111.36 C 62.09 106.46 64.21 97.25 65.27 88.99 C 65.92 80.34 66.71 71.68 66.27 63.00 C 65.56 53.02 65.56 42.76 61.92 33.28 C 60.74 29.88 58.46 26.97 55.66 24.74 Z" />
</g>
<g id="#3eaf7cff">
<path fill="#3eaf7c" opacity="1.00" d=" M 50.36 2.92 C 60.32 2.36 70.75 2.07 80.20 5.86 C 87.84 8.88 94.35 14.76 97.85 22.24 C 103.53 32.91 104.30 45.20 105.33 57.00 C 105.91 71.37 105.13 85.87 101.80 99.89 C 98.69 111.11 92.50 122.23 82.01 128.02 C 70.88 134.72 57.40 133.16 45.00 133.40 C 42.94 133.20 40.57 133.97 38.78 132.65 C 40.55 132.37 42.33 132.06 44.10 131.79 C 37.86 128.77 31.14 125.84 26.96 120.03 C 18.41 108.98 16.57 94.56 15.67 81.03 C 14.61 70.26 15.49 59.43 16.59 48.70 C 17.99 35.89 22.22 22.80 31.40 13.40 C 36.57 8.09 43.78 5.88 50.36 2.92 M 55.66 24.74 C 54.23 24.42 52.64 24.39 51.48 25.43 C 46.42 28.98 44.39 35.25 43.03 40.99 C 40.49 54.91 41.30 69.15 41.52 83.22 C 42.48 91.42 42.78 100.31 47.68 107.32 C 49.33 109.45 51.63 112.18 54.66 111.36 C 57.47 113.40 61.21 113.11 64.43 112.41 C 70.03 111.05 74.08 106.16 75.92 100.90 C 79.40 91.35 79.26 81.02 79.77 71.01 C 79.61 59.97 79.34 48.81 76.98 37.98 C 75.70 32.04 72.51 25.56 66.19 23.79 C 62.80 23.00 58.44 21.98 55.66 24.74 Z" />
</g>
<g id="#339166ff">
<path fill="#339166" opacity="1.00" d=" M 139.78 6.77 C 145.34 2.51 152.72 4.83 159.15 4.18 C 151.61 7.06 145.35 12.32 138.50 16.46 C 134.43 19.37 129.46 21.34 126.36 25.40 C 124.77 29.07 124.95 33.18 124.48 37.08 C 120.90 39.34 117.18 42.16 112.69 41.57 C 112.07 38.41 111.35 35.22 111.50 31.97 C 111.50 28.94 111.59 25.25 114.43 23.40 C 122.69 17.59 131.45 12.50 139.78 6.77 Z" />
<path fill="#339166" opacity="1.00" d=" M 139.16 36.83 C 143.59 34.52 147.43 30.70 152.60 30.15 C 152.67 33.10 152.93 36.05 152.91 39.00 C 152.59 62.88 153.20 86.79 152.62 110.66 C 148.16 111.20 143.68 111.19 139.20 111.15 C 139.38 86.38 139.45 61.60 139.16 36.83 Z" />
<path fill="#339166" opacity="1.00" d=" M 113.74 111.69 C 118.35 111.85 122.96 111.72 127.57 111.81 C 124.17 117.30 125.17 123.86 126.01 129.90 C 121.88 130.12 117.75 130.22 113.63 130.43 C 111.17 124.48 111.17 117.60 113.74 111.69 Z" />
</g>
<g id="#2b7956ff">
<path fill="#2b7956" opacity="1.00" d=" M 159.15 4.18 C 163.45 4.14 167.75 4.20 172.05 4.25 C 173.95 4.39 176.07 4.24 177.71 5.40 C 178.26 6.85 178.30 8.41 178.34 9.94 C 178.26 43.57 178.38 77.19 178.27 110.82 C 183.57 111.41 188.91 111.42 194.23 111.31 C 196.90 111.37 200.65 110.96 201.80 114.07 C 203.07 118.55 203.04 123.47 201.94 127.98 C 201.11 131.50 196.87 130.48 194.20 130.77 C 175.83 131.92 157.40 131.13 139.00 131.37 C 130.54 131.15 122.01 131.75 113.63 130.43 C 117.75 130.22 121.88 130.12 126.01 129.90 C 125.17 123.86 124.17 117.30 127.57 111.81 C 122.96 111.72 118.35 111.85 113.74 111.69 C 122.20 110.98 130.71 111.45 139.20 111.15 C 143.68 111.19 148.16 111.20 152.62 110.66 C 153.20 86.79 152.59 62.88 152.91 39.00 C 152.93 36.05 152.67 33.10 152.60 30.15 C 147.43 30.70 143.59 34.52 139.16 36.83 C 135.87 38.55 132.64 40.48 129.07 41.54 C 126.39 41.98 125.68 38.80 124.48 37.08 C 124.95 33.18 124.77 29.07 126.36 25.40 C 129.46 21.34 134.43 19.37 138.50 16.46 C 145.35 12.32 151.61 7.06 159.15 4.18 Z" />
</g>
<g id="#323232ff">
<path fill="#323232" opacity="1.00" d=" M 372.68 26.91 C 378.37 26.13 384.36 26.13 389.77 28.31 C 392.38 29.42 395.73 29.87 397.36 32.45 C 397.86 35.79 397.82 39.23 397.39 42.57 C 396.70 44.53 394.55 43.30 393.31 42.71 C 387.00 39.70 379.26 36.64 372.56 40.29 C 367.53 42.55 367.08 50.35 371.45 53.53 C 379.54 60.17 391.22 61.49 398.00 69.96 C 402.38 75.34 402.76 82.86 401.33 89.40 C 399.09 98.67 390.67 105.67 381.34 107.04 C 372.86 108.18 363.69 108.10 355.94 104.02 C 353.74 102.75 350.95 101.09 351.37 98.11 C 351.60 95.26 350.42 91.63 352.46 89.32 C 356.50 88.87 359.57 92.65 363.34 93.69 C 369.97 95.95 378.83 96.80 384.02 91.11 C 387.35 87.70 386.89 81.77 383.26 78.76 C 375.69 72.97 365.41 71.40 358.86 64.16 C 351.91 58.05 351.57 47.44 354.55 39.26 C 357.98 32.30 365.29 28.34 372.68 26.91 Z" />
<path fill="#323232" opacity="1.00" d=" M 211.85 27.88 C 216.34 27.18 220.97 27.35 225.48 27.80 C 227.98 28.89 227.67 32.24 228.63 34.41 C 231.45 42.07 233.14 50.09 236.21 57.66 C 238.22 64.07 239.72 70.65 242.16 76.92 C 244.04 81.47 244.31 86.63 247.01 90.83 C 249.22 86.50 250.19 81.71 251.48 77.06 C 252.67 72.22 254.99 67.74 256.02 62.85 C 257.15 57.34 259.82 52.32 261.01 46.84 C 262.14 41.67 264.41 36.86 265.81 31.77 C 266.32 30.06 267.02 27.63 269.23 27.62 C 272.83 27.48 276.56 27.08 280.10 27.89 C 281.54 29.05 280.93 31.10 280.57 32.62 C 274.25 52.20 268.01 71.82 261.14 91.23 C 258.79 95.84 258.23 101.20 255.59 105.63 C 252.51 107.53 248.45 106.26 244.99 106.64 C 241.75 106.26 236.81 107.86 235.35 103.85 C 227.09 80.71 220.09 57.13 212.07 33.90 C 211.58 31.99 210.50 29.68 211.85 27.88 Z" />
<path fill="#323232" opacity="1.00" d=" M 295.49 38.48 C 306.21 25.72 326.36 23.52 340.55 31.46 C 345.62 34.49 343.22 41.13 343.55 45.93 C 340.28 46.62 337.83 44.02 335.09 42.74 C 328.91 39.50 321.08 38.09 314.72 41.67 C 309.51 44.10 306.58 49.42 304.66 54.58 C 302.93 60.52 303.32 66.81 303.48 72.92 C 303.72 79.95 306.76 87.29 312.69 91.37 C 318.13 95.11 325.29 95.16 331.46 93.46 C 334.81 92.61 337.50 90.37 340.46 88.72 C 341.42 88.14 343.10 88.06 343.55 89.35 C 344.26 93.00 344.30 96.90 343.34 100.51 C 335.85 107.61 324.62 107.75 314.94 107.01 C 305.30 106.63 296.65 100.42 291.74 92.37 C 288.34 85.81 286.12 78.48 286.43 71.03 C 285.89 59.68 287.92 47.38 295.49 38.48 Z" />
</g>
</svg>
